<?xml version="1.0" encoding="utf-8"?>
<!-- Generator: Adobe Illustrator 19.2.0, SVG Export Plug-In . SVG Version: 6.00 Build 0)  -->
<svg version="1.1" id="Layer_1" xmlns="http://www.w3.org/2000/svg" xmlns:xlink="http://www.w3.org/1999/xlink" x="0px" y="0px"
	 viewBox="0 0 403.9 148.8" style="enable-background:new 0 0 403.9 148.8;" xml:space="preserve">
<style type="text/css">
	.st0{fill:#1D8FCB;}
	.st1{fill:#F57F2C;}
</style>
<title>ownai logo</title>
<path class="st0" d="M88.3,77c0.1,6.2-1,12.4-3.1,18.3c-1.9,5.4-5,10.3-9,14.4c-4,4-8.7,7.2-14,9.2c-5.8,2.2-12,3.3-18.3,3.2
	c-6.2,0.1-12.3-1-18.1-3.2C15.2,114.6,6.9,106,3,95.2c-2.1-5.9-3.1-12-3-18.2c-0.1-6.3,1-12.5,3.1-18.4C5,53.2,8,48.4,11.9,44.3
	c4-4,8.7-7.1,14-9.1c5.8-2.2,11.9-3.3,18.1-3.2c6.2-0.1,12.4,1,18.3,3.3c10.7,4.1,19.1,12.7,22.9,23.6C87.4,64.6,88.4,70.8,88.3,77
	 M66.1,77c0-9.1-2-16.1-6-21.1c-3.8-5-9.8-7.8-16-7.6c-4.1-0.1-8.1,1.1-11.4,3.4c-3.5,2.5-6.1,5.9-7.6,9.9
	c-1.9,4.9-2.8,10.1-2.7,15.4c-0.1,5.2,0.8,10.3,2.6,15.2c1.5,4,4.1,7.5,7.6,10c8.9,5.9,20.8,4.1,27.6-4.1C64.1,93,66.1,86,66.1,77"
	/>
<path class="st1" d="M105.5,45.9l2.8,49.2l24.2-45.7c2.6-4.8,4.4-8,5.5-9.8c1.3-2,3-3.7,5-5c2.5-1.6,5.4-2.5,8.3-2.4
	c3.3,0,5.7,0.8,7.2,2.4c1.4,1.4,2.4,3.2,2.7,5.2c0.3,1.9,0.6,5.1,0.9,9.6l2.3,45.7L190.9,46c1.8-3.5,3.2-6.1,4.2-7.7
	c1-1.7,2.4-3.1,4-4.2c1.9-1.3,4.2-1.9,6.6-1.8c2.4-0.1,4.7,0.9,6.3,2.7c1.5,1.8,2,4.2,1.4,6.5c-0.5,2.3-2.2,5.7-5,10.2l-30.9,52.7
	c-2.7,4.5-4.7,7.7-6,9.7c-1.5,2.1-3.3,3.9-5.4,5.3c-2.5,1.6-5.4,2.4-8.3,2.3c-3.4,0-5.8-0.8-7.4-2.5c-1.6-1.7-2.5-3.8-2.8-6.1
	c-0.4-3.1-0.7-6.3-0.8-9.4l-2.5-42.9l-22.6,42.9c-2.3,4.8-5.2,9.3-8.6,13.5c-2.7,3-6.4,4.6-11.1,4.6c-2.1,0.1-4.1-0.4-5.9-1.4
	c-1.5-0.9-2.7-2.3-3.3-4c-0.8-2-1.3-4.1-1.6-6.2c-0.3-2.4-0.5-4.3-0.7-5.7l-5.5-52.7c-0.6-5-0.7-8.4-0.2-10.2
	c0.7-2.6,2.2-4.8,4.4-6.4c2.2-1.8,4.9-2.8,7.7-2.8c3.7,0,6,1,6.8,3.1S105.1,41,105.5,45.9"/>
<path class="st0" d="M232.5,44.2v2.7c3.4-4.7,7.7-8.6,12.8-11.3c5-2.5,10.5-3.7,16-3.6c5.5-0.1,10.9,1.2,15.7,3.8
	c4.5,2.4,8.1,6.2,10.3,10.8c1.5,2.7,2.4,5.7,2.8,8.8c0.5,4,0.7,8,0.6,12v41.3c0,4.4-1,7.8-3,10.1c-2,2.3-4.9,3.5-7.9,3.4
	c-3.1,0.1-6-1.2-8-3.5c-2.1-2.3-3.1-5.7-3.1-10v-37c0-7.3-1-12.9-3-16.8s-6.1-5.8-12.1-5.8c-3.9,0-7.7,1.2-10.8,3.5
	c-3.3,2.4-5.8,5.8-7.1,9.7c-1.1,3.3-1.6,9.5-1.6,18.5v27.8c0,4.5-1,7.9-3.1,10.1c-2.1,2.2-5,3.5-8.1,3.4c-3,0.1-5.9-1.2-7.9-3.5
	c-2.1-2.3-3.1-5.7-3.1-10v-64c0-4.2,0.9-7.4,2.8-9.5c1.9-2.1,4.7-3.3,7.6-3.1c1.9,0,3.7,0.5,5.3,1.4c1.6,1,2.9,2.4,3.8,4.2
	C232.1,39.6,232.6,41.9,232.5,44.2"/>
<path class="st0" d="M352.3,109.6c-4.7,3.8-10,7-15.6,9.4c-5.4,2.2-11.1,3.2-16.9,3.1c-5.2,0.1-10.3-1-15-3.4
	c-4.1-2.1-7.6-5.2-10-9.1c-2.3-3.8-3.5-8.1-3.5-12.5c-0.1-5.7,1.9-11.3,5.8-15.6c3.9-4.3,9.1-7.2,15.8-8.6c1.4-0.3,4.9-1.1,10.5-2.2
	c5.6-1.1,10.4-2.2,14.3-3.1s8.3-2.1,13-3.5c-0.3-5.9-1.5-10.1-3.5-12.9s-6.4-4.1-13-4.1c-5.6,0-9.9,0.8-12.7,2.4
	c-3,1.7-5.6,4.2-7.4,7.1c-1.3,2.1-2.8,4.2-4.3,6.2c-0.8,1-2.6,1.5-5.4,1.5c-2.4,0-4.7-0.8-6.5-2.4c-1.8-1.5-2.8-3.8-2.7-6.1
	c0.1-4.1,1.5-8.1,4.1-11.4c2.8-3.7,7.1-6.7,12.9-9.1c5.8-2.4,13.1-3.6,21.9-3.6c9.7,0,17.4,1.2,23,3.4c5.2,2,9.4,5.9,11.8,10.9
	c2.3,5,3.5,11.6,3.5,19.8c0,5.2,0,9.6,0,13.2c0,3.6,0,7.7-0.1,12.1c0,4.4,0.7,8.8,2.1,13c1.4,4.5,2.1,7.4,2.1,8.7
	c-0.1,2.4-1.3,4.7-3.2,6.2c-2,1.8-4.6,2.8-7.3,2.8c-2.3,0-4.5-1.1-6.8-3.2C356.6,116,354.3,112.9,352.3,109.6 M350.8,77.5
	c-4.6,1.6-9.4,2.8-14.2,3.8c-6.2,1.3-10.5,2.3-12.9,2.9c-2.5,0.7-4.9,1.9-6.8,3.7c-2.2,1.9-3.4,4.7-3.2,7.6c0,3.3,1.4,6.4,3.8,8.6
	c2.8,2.4,6.3,3.7,10,3.5c4.2,0,8.4-1,12.1-2.9c3.4-1.6,6.2-4.2,8.2-7.4c2-3.3,3-8.9,3-16.6L350.8,77.5z"/>
<path class="st1" d="M392.9,21.6c-2.9,0.1-5.7-0.9-7.9-2.8c-2.2-1.9-3.3-4.6-3.3-8c-0.1-3,1.2-5.8,3.4-7.8c2.1-2,4.9-3,7.8-3
	c2.8,0,5.5,1,7.6,2.8c2.2,1.8,3.3,4.5,3.3,8c0.2,3-1,6-3.2,8C398.5,20.7,395.7,21.7,392.9,21.6"/>
<path class="st0" d="M100.1,148.8c-2.9,0.1-5.7-0.9-7.9-2.9c-2.2-1.9-3.3-4.6-3.3-8c-0.1-3,1.2-5.8,3.4-7.8c2.1-2,4.9-3,7.8-3
	c2.8,0,5.5,1,7.6,2.8c2.2,1.8,3.3,4.5,3.3,8c0.2,3-1,6-3.2,8C105.7,147.9,102.9,148.9,100.1,148.8"/>
<path class="st0" d="M156.9,148.8c-2.9,0.1-5.7-1-7.9-2.9c-2.2-1.9-3.3-4.6-3.3-8c-0.1-3,1.2-5.8,3.4-7.8c2.1-2,4.9-3,7.8-3
	c2.8,0,5.5,1,7.6,2.8c2.2,1.8,3.3,4.5,3.3,8c0.2,3-1,6-3.2,8C162.5,147.9,159.7,148.9,156.9,148.8"/>
<path class="st0" d="M403.9,44.5v64.1c0,4.4-1.1,7.8-3.2,10.1c-2,2.2-5,3.5-8,3.4c-3,0.1-5.9-1.2-7.9-3.5c-2-2.3-3-5.7-3-10V45.2
	c0-4.4,1-7.7,3-9.9c2-2.2,4.9-3.4,7.9-3.3c3-0.1,5.9,1.1,8,3.3C402.8,37.5,403.8,40.5,403.9,44.5"/>
</svg>
